<svg height="512pt" viewBox="0 -32 512.005 512" width="512pt" xmlns="http://www.w3.org/2000/svg"><path d="M306.582 295.922c-12.074 12.098-28.16 18.754-45.25 18.754-17.086 0-33.172-6.656-45.246-18.754l-90.668-90.664c-12.094-12.078-18.75-28.16-18.75-45.25 0-17.086 6.656-33.172 18.75-45.246 12.074-12.098 28.16-18.754 45.25-18.754 17.086 0 33.172 6.656 45.246 18.754l45.418 45.394L404.457 17.031C402.434 7.391 394.262.008 384 .008H64c-35.285 0-64 28.715-64 64v320c0 35.285 28.715 64 64 64h320c35.285 0 64-28.715 64-64V154.504zm0 0" fill="#339beb"/><path d="M261.332 272.008c-5.46 0-10.922-2.09-15.082-6.25l-90.664-90.668c-8.344-8.34-8.344-21.824 0-30.164 8.34-8.34 21.82-8.34 30.164 0l75.582 75.582L475.586 6.258c8.34-8.34 21.82-8.34 30.164 0 8.34 8.344 8.34 21.824 0 30.168L276.414 265.758a21.266 21.266 0 01-15.082 6.25zm0 0"/></svg>